# xmcd
#
# Track frame offsets:
#	150
#	4952
#	8833
#	12821
#	17417
#	21322
#	25724
#	30202
#	33602
#	43519
#	47260
#	50651
#	61761
#	75236
#	81092
#	87200
#	100962
#	109572
#	116794
#	122586
#	131095
#	142147
#	153270
#	160272
#	169421
#	176778
#	181758
#
# Disc length: 2481 seconds
#
# Revision: 0
# Processed by: cddbd v1.5.1PL0 Copyright (c) Steve Scherf et al.
# Submitted via: dBpowerAMP V4.0
#
DISCID=4609af1b
DTITLE=¸t¸g-ÂÂ¬ù¡N - Disc 43
DYEAR=1900
DGENRE=
TTITLE0=¸Ö½g²Ä124½g
TTITLE1=¸Ö½g²Ä125½g
TTITLE2=¸Ö½g²Ä126½g
TTITLE3=¸Ö½g²Ä127½g
TTITLE4=¸Ö½g²Ä128½g
TTITLE5=¸Ö½g²Ä129½g
TTITLE6=¸Ö½g²Ä130½g
TTITLE7=¸Ö½g²Ä131½g
TTITLE8=¸Ö½g²Ä132½g
TTITLE9=¸Ö½g²Ä133½g
TTITLE10=¸Ö½g²Ä134½g
TTITLE11=¸Ö½g²Ä135½g
TTITLE12=¸Ö½g²Ä136½g
TTITLE13=¸Ö½g²Ä137½g
TTITLE14=¸Ö½g²Ä138½g
TTITLE15=¸Ö½g²Ä139½g
TTITLE16=¸Ö½g²Ä140½g
TTITLE17=¸Ö½g²Ä141½g
TTITLE18=¸Ö½g²Ä142½g
TTITLE19=¸Ö½g²Ä143½g
TTITLE20=¸Ö½g²Ä144½g
TTITLE21=¸Ö½g²Ä145½g
TTITLE22=¸Ö½g²Ä146½g
TTITLE23=¸Ö½g²Ä147½g
TTITLE24=¸Ö½g²Ä148½g
TTITLE25=¸Ö½g²Ä149½g
TTITLE26=¸Ö½g²Ä150½g
EXTD=
EXTT0=
EXTT1=
EXTT2=
EXTT3=
EXTT4=
EXTT5=
EXTT6=
EXTT7=
EXTT8=
EXTT9=
EXTT10=
EXTT11=
EXTT12=
EXTT13=
EXTT14=
EXTT15=
EXTT16=
EXTT17=
EXTT18=
EXTT19=
EXTT20=
EXTT21=
EXTT22=
EXTT23=
EXTT24=
EXTT25=
EXTT26=
PLAYORDER=
